<svg xmlns="http://www.w3.org/2000/svg" width="960" height="810" viewBox="0 0 960 810"><defs><style>.a{fill:#fff}.b{fill:#7ad7ff}.c{fill:#333132}.d{fill:#d1d3d4}.e{fill:#6acff6}</style></defs><title>the-bridge</title><path class="a" d="M851 229.8V119.1h-82.77V32h-121.1v87.1H561v35H399v-35h-82.78V32h-121.1v87.1H109v110.7H33.81v334.77l82.34-29.83c5-1.83 10.28-3.68 15.64-5.52A372.48 372.48 0 0 0 256.2 702.1a368.3 368.3 0 0 0 447.46.28A372.44 372.44 0 0 0 828.41 529.3c5.39 1.86 10.56 3.68 15.43 5.45l82.34 29.83V229.8z"/><path class="b" d="M146.46 151.2h46.21v16.09h-46.21zM232.37 64.12h46.62v26.29h-46.62zM315.1 151.2h46.69v16.09H315.1zM599.39 150.32h46.21v16.09h-46.21zM685.3 63.23h46.62v26.29H685.3zM768.04 150.32h46.69v16.09h-46.69z"/><g><path class="c" d="M894.17 261.9H65.85V519l39.4-14.27q16.52-6 33.26-11.45s20.56-8.5 56.81-19.15 252.44-88.77 538.1-9.75q3.71 1 7.42 2.07l1.34.37c24 6.85 48.16 14.84 72.42 24.2q20.19 6.48 40.17 13.69l39.4 14.29zM146.46 182.59h46.21v58.83h-46.21zM232.37 105.7h46.62v61.6h-46.62zM232.37 182.59h46.62v58.83h-46.62zM315.1 182.59h46.69v58.83H315.1zM599.39 181.7h46.21v58.83h-46.21zM685.3 104.81h46.62v61.6H685.3zM685.3 181.7h46.62v58.83H685.3zM768.04 181.7h46.69v58.83h-46.69z"/></g><g><path class="d" d="M478.86 665.67c-118.48 0-218.76-79.38-250.48-187.75q-35.32 10.17-71.73 23.81c40 141 169.67 244.3 323.48 244.3 153.51 0 283-102.88 323.23-243.45-12.6-5.38-37.93-15.42-73.72-25.78-31.35 108.93-131.89 188.87-250.78 188.87z"/><path class="d" d="M480.12 778a364.82 364.82 0 0 1-223.92-75.9 372.48 372.48 0 0 1-124.41-172.88c-5.36 1.85-10.6 3.69-15.64 5.52l-82.34 29.83V229.8H109V119.1h86.12V32h121.1v87.1H399v35h162v-35h86.12V32h121.11v87.1H851v110.7h75.19v334.77l-82.34-29.83c-4.87-1.77-10-3.59-15.44-5.45a372.44 372.44 0 0 1-124.74 173.09A364.86 364.86 0 0 1 480.12 778zM143 507l2.68 8.48a354.55 354.55 0 0 0 121.16 172.75 350.81 350.81 0 0 0 426.21.27 354.54 354.54 0 0 0 121.51-173l2.68-8.47 8.43 2.83c8.56 2.87 16.68 5.7 24.14 8.41l58.91 21.35V247.27h-75.2v-110.7h-82.77V49.49H664.6v87.09h-86.12v35h-197v-35h-82.73V49.49h-86.16v87.09h-86.12v110.7H51.28v292.38l58.92-21.35c7.75-2.81 15.94-5.66 24.33-8.49z"/></g><g><path class="c" d="M201.86 550.92l7.93-11.4-2.36-4.78-10.9 5.37-3.22-6.53L224 518.47l7.07 14.35c3.15 6.39.91 12.41-4.79 15.22-5.38 2.65-10 .65-12.44-2.27l-8.26 12.7zM223 541.3c2.53-1.25 3.12-4 1.85-6.57l-3.4-6.9-8.28 4.08 3.4 6.9c1.28 2.57 3.82 3.78 6.43 2.49zM214.3 573l28.31-19.18 13.58 20-5.31 3.6-9.49-14-5.94 4 9.29 13.71-5.31 3.59-9.29-13.71-6.45 4.37 9.49 14-5.31 3.59zM254.48 624.42l2.85-5.49-9.85-10.87-5.74 2.29-5.54-6.12 34.19-13.2 6.13 6.76L260 630.54zm13.58-25.1l-14.48 5.93 7.16 7.9zM270.83 640.27l22-26.15 5.61 4.73-17.87 21.25 11.05 9.32-4.13 4.9zM323.27 667.14l2.77-4.79 10.65 6.16-2.77 4.79zM368.92 682.23c3.5-10.24 13.48-14.09 23-10.84a16 16 0 0 1 10.87 11.79l-6.79 1.16a9.83 9.83 0 0 0-6.22-6.84c-5.92-2-11.73 1-13.82 7.15s.64 12.08 6.56 14.11a9 9 0 0 0 10.57-3.49L383 691.82l2.07-6.06 17.66 6c-3.94 11.55-12.59 16.4-22.92 12.87a17.22 17.22 0 0 1-10.89-22.4zM413.16 696.32c1.72-10.16 10.38-16.18 20.6-14.45s16.36 10.26 14.64 20.42-10.4 16.18-20.55 14.46-16.41-10.27-14.69-20.43zM441 701c1.07-6.32-2.12-11.75-8.34-12.8s-11.07 3-12.14 9.33 2.12 11.75 8.39 12.81S440 707.31 441 701zM461.27 703.18c.17-10.3 7.82-17.57 18.18-17.4s17.72 7.67 17.56 18-7.82 17.57-18.13 17.4-17.77-7.69-17.61-18zm28.25.45c.1-6.41-3.87-11.29-10.18-11.39s-10.49 4.65-10.59 11.06 3.87 11.29 10.23 11.4 10.44-4.7 10.54-11.07zM514.08 719.15l-5.22-33.8 13.33-2.06c10.59-1.64 19 4 20.54 14.1s-4.73 18.06-15.27 19.69zm21.3-20.62c-.92-5.93-5.28-10-12.17-8.91l-6.18 1 3.26 21.13 6.13-.95c6.7-1.08 9.85-6.49 8.96-12.27zM578.79 694.79l-1.89-5.2 11.57-4.21 1.89 5.2zM655.49 667.57l-13-20.95 4.83 26-2.7 1.68-21.22-15.82 13 20.95-6.18 3.84-18.05-29 8.67-5.39 18.34 13.78-4.18-22.6 8.71-5.41 18.05 29zM667.88 641.76l-13.6-15.35 5.53-4.9 13.46 15.2c3.16 3.57 7.41 4.19 11.36.69s3.81-7.76.65-11.33l-13.46-15.2 5.56-4.93L691 621.29c5.61 6.33 5.72 14-2.07 20.94s-15.44 5.86-21.05-.47zM707.74 616.68L706 610a15 15 0 0 0 10.57-5.31c2.61-3.1 2.46-5.71.93-7-4.55-3.83-14.05 13.9-23.9 5.61-4.35-3.67-4.79-10.47.39-16.62 3.5-4.16 7.66-6.55 12.23-7.12l1.55 6.6a14.69 14.69 0 0 0-9.27 5.2c-2 2.35-2.08 4.54-.52 5.87 4.12 3.47 14-13.9 23.74-5.67 4.78 4 5.49 10.52-.42 17.54-4.3 5-9.01 7.19-13.56 7.58zM738.78 585.16L710.43 566l4.07-6 28.34 19.13zM736.66 557.55c-9.37-4.87-12-15.21-7.27-24.35a15.54 15.54 0 0 1 14-8.79l-.16 7a9.25 9.25 0 0 0-8.1 4.8c-2.88 5.55-.74 11.75 5 14.73s12 1.18 14.93-4.37a9.25 9.25 0 0 0-.72-9.39l5.57-4.15a15.66 15.66 0 0 1 .88 16.52c-4.79 9.11-14.79 12.85-24.13 8z"/></g><g><path class="c" d="M349.29 567h31.88q0 8.92.24 11.25a6 6 0 0 0 1.93 3.91 6.5 6.5 0 0 0 4.62 1.58 5.61 5.61 0 0 0 4-1.5 5.8 5.8 0 0 0 1.78-3.87q.2-2.37.2-9.55v-20.34a16.18 16.18 0 0 1-7.1 7.7 24.44 24.44 0 0 1-11.76 2.57 26.15 26.15 0 0 1-15.45-4.75q-6.71-4.74-8.52-11.37t-1.81-17.92v-10.17q0-13.42 1.07-20a26 26 0 0 1 5.48-12.11 28.56 28.56 0 0 1 12.23-8.64 49.32 49.32 0 0 1 18.15-3.08q12.79 0 21 3.55a28.55 28.55 0 0 1 12.71 10.22 30 30 0 0 1 5.21 14q.71 7.34.71 28.41v17.76q0 22.81-.63 30.5a29 29 0 0 1-5.48 14.56 29.52 29.52 0 0 1-13.14 10.3 49.82 49.82 0 0 1-19.18 3.43q-13.5 0-22.06-4.34A26.18 26.18 0 0 1 353 586.92q-3.71-7.92-3.71-19.92zm31.88-39.86q0 8 2.09 9.94a6.39 6.39 0 0 0 4.3 1.89 5.34 5.34 0 0 0 4.85-2.41q1.54-2.41 1.54-9.43V504q0-8.44-1.46-11a5.12 5.12 0 0 0-4.85-2.6 6.49 6.49 0 0 0-4.26 2q-2.21 2-2.21 10.85zM494.07 473.19V601h-31.89v-68.5q0-14.84-.71-17.84a6.66 6.66 0 0 0-3.91-4.54q-3.2-1.54-14.25-1.54h-3.16v-14.9q23.12-5 35.12-20.46zM535.77 574.92v26H511.7v-26zM601.62 473.19V601h-31.88v-68.5q0-14.84-.71-17.84a6.66 6.66 0 0 0-3.91-4.54q-3.2-1.54-14.25-1.54h-3.16v-14.9q23.12-5 35.12-20.46z"/></g><g><path class="e" d="M192.28 444.34q-48.76 13-97 30.51V292.46q46.58-.2 93.17-.35c11.58 0 20.2 3.43 25.84 10.08s8.42 16.68 8.31 30.29c-.06 7.72-1.35 14.15-3.86 19.39A32.74 32.74 0 0 1 207.06 365c6.51.72 11.24 3.68 14.21 8.83s4.41 12.86 4.32 23.24c-.11 13.6-2.8 24-8.06 31.45s-13.69 12.72-25.25 15.82zm-10.35-91.76a7.76 7.76 0 0 0 6.05-3.91q2.1-3.46 2.14-9.61c0-3.77-.71-6.75-2.2-9a6.24 6.24 0 0 0-5.84-3.13q-27.72 1.79-55.4 3.91l-.07 28.37q27.63-3.59 55.32-6.63zm2.48 58.9a9.42 9.42 0 0 0 6.42-5c1.51-2.73 2.29-6.33 2.32-10.82 0-4.09-.74-7.2-2.29-9.36a6 6 0 0 0-6.28-2.62q-29.08 4.77-58.05 10.48l-.08 30.91q28.91-7.4 57.96-13.59zM328.56 291.77c16.4 0 27.54 2.86 33.43 8.48s8.79 15.87 8.7 30.8c-.07 10.37-1.44 18.14-4.12 23.35s-7.15 8.9-13.39 11.09c5.47 1.14 9.57 3.55 12.29 7.18s4.06 8.48 4 14.56l-.16 24.61q-15.9 1.61-31.78 3.68l.15-18.87q.06-7.31-2.82-9.76c-1.92-1.63-5.71-2.18-11.38-1.57q-23.63 2.54-47.21 5.85l-.27 34.14q-15.86 3-31.69 6.42l1.15-139.79q41.54-.1 83.1-.17zM327.12 323q-25.15.92-50.27 2.14l-.28 32.62q25.14-2.36 50.31-4.14 6.33-.45 8.91-4.15t2.64-12.91q.06-7.31-2.63-10.53c-1.8-2.17-4.69-3.19-8.68-3.03zM423.47 407.7q-15.92.82-31.84 2.11l.65-118.12h31.62zM537.16 291.66c15.8 0 27.3 3.14 34.52 9.53s10.88 16.64 11 30.6l.25 41.06q.12 19.9-8.49 28.34c-5.74 5.63-14.91 7.87-27.51 7.09q-50.35-3.08-100.76-1.52l.26-115.11q45.36-.02 90.73.01zm-9.57 28.49q-24.82-.28-49.64-.27v58.49q26.91 0 53.82.93c6.75.25 11.69-1.06 14.79-4s4.64-7.71 4.61-14.31q0-10.28-.09-20.57c0-6.86-1.95-11.94-5.74-15.22s-9.72-4.96-17.74-5.05zM699.28 341.15v-.37c-.05-6.3-1.53-10.7-4.42-13.16s-9.39-3.93-19.49-4.37q-9.21-.41-18.42-.78c-10.8-.43-17.71.92-20.72 3.94s-4.48 9.59-4.4 19.73l.14 17.39c.07 9 1.84 15.36 5.31 19.1s10.26 6.2 20.38 7.47q9.16 1.15 18.31 2.41c9.09 1.26 15.34 1.14 18.75-.51s5.09-5.15 5-10.47q0-1.1-.31-3.7v-.46Q680.86 375 662.24 373l-.24-26.22q35.06 2.54 70.05 6.05l.37 47.15c.11 13.52-3.41 22.39-10.56 26.43s-19.65 4-37.56.56q-17.6-3.35-35.24-6.12c-10.83-1.7-18.84-3.51-24-5.58a37.75 37.75 0 0 1-13.18-8.65 39.91 39.91 0 0 1-9.25-15.23c-1.95-5.8-2.95-13-3-21.53l-.23-33c-.12-17.34 3.31-29.34 10.28-36.21s19.69-10.37 38.17-10.39h35.3c11.4 0 19.81.66 25.24 2s9.71 3.73 12.84 7.06 5.7 8.15 7.3 14.06 2.43 13.32 2.5 22.18v4.91c0 1.15 0 2.21-.08 3.17q-15.83-1.31-31.67-2.49zM863.53 336.81q-40.59-3.66-81.28-6.55l.14 23.63q38.28 4.32 76.44 9.74v37.9q-38-8.22-76.27-14.77l.14 23.94q41.17 8.82 82.06 20v44.1a1171.52 1171.52 0 0 0-113.22-34.71L750.49 292q56.52.17 113 .41.04 22.22.04 44.4z"/><g><path class="a" d="M605.32 354.45l-.12-17.22c-.11-15.73 2.83-26.66 8.73-32.48s17.86-8.88 34.54-8.89h35.29c11 0 19 .63 24 1.88 4.51 1.15 7.89 3 10.34 5.59 2.67 2.82 4.71 6.81 6.08 11.86 1.47 5.45 2.25 12.47 2.32 20.87v2.4c-7.21-.6-14.47-1.18-21.67-1.73-.7-5.62-2.7-9.86-6-12.65-3.89-3.32-11.08-5.1-22.63-5.61q-9.22-.41-18.44-.78-2.08-.08-4-.08c-10.31 0-16.86 1.76-20.63 5.54-4.13 4.16-6 11.6-5.91 23.43l.06 7.88zM756.74 354.45l-.41-56.79q51.32.16 102.63.37v33.52c-25.12-2.23-50.56-4.26-75.73-6l-5.58-.4.17 29.34zM191 354.45a14.29 14.29 0 0 0 2.08-2.67c1.92-3.15 2.86-7.17 2.89-12.27 0-4.79-1-8.79-3.07-11.89a11.49 11.49 0 0 0-9.7-5.46h-.79c-18.49 1.19-37.15 2.51-55.46 3.92l-4.78.37-.07 28H101V298q44-.18 88-.33c9.9 0 17.22 2.78 21.87 8.25 4.79 5.66 7.17 14.71 7.08 26.89-.05 6.88-1.18 12.66-3.35 17.19a25.75 25.75 0 0 1-2.69 4.4zM556.95 354.45l-.06-13.64c0-8.41-2.58-14.84-7.54-19.12-4.8-4.14-11.69-6.2-21.06-6.31-15.77-.18-31.77-.27-47.54-.27h-7.35v39.34h-21.32l.13-57.21h85.57c14.47 0 24.93 2.78 31.09 8.23s9.14 14.34 9.22 26.75l.14 22.21zM339.34 354.45a13.43 13.43 0 0 0 1.33-1.63c2.35-3.38 3.51-8.56 3.57-15.83 0-6.19-1.21-10.73-3.83-13.89-1.86-2.24-5.44-4.91-11.92-4.91h-.92c-16.76.61-33.69 1.33-50.34 2.14l-4.89.24-.34 33.88h-21.25l.47-56.92q39-.1 78-.16c18.59 0 26.48 3.83 29.85 7 4.79 4.59 7.18 13.68 7.09 27-.06 9.48-1.26 16.55-3.55 21a15.62 15.62 0 0 1-1.23 2zM397.75 354.45l.31-57.17 21.25-.02-.21 57.19h-21.35z"/></g><g><path class="c" d="M407.68 240.53v-40H393.1v-14.35h45.55v14.34h-14.5v40zM488.6 240.53v-20.78h-19.48v20.78h-16.46v-54.35h16.46v19.23h19.48v-19.23h16.46v54.35zM522 240.53v-54.35h41.23v14.34h-24.76v5.38h24.2v14.34h-24.2v5.95h24.77v14.34z"/></g></g></svg>